<?xml version="1.0" standalone="no"?>
<!DOCTYPE svg PUBLIC "-//W3C//DTD SVG 20010904//EN"
 "http://www.w3.org/TR/2001/REC-SVG-20010904/DTD/svg10.dtd">
<svg version="1.0" xmlns="http://www.w3.org/2000/svg"
 width="512.000000pt" height="512.000000pt" viewBox="0 0 512.000000 512.000000"
 preserveAspectRatio="xMidYMid meet">

<g transform="translate(0.000000,512.000000) scale(0.100000,-0.100000)"
fill="#000000" stroke="none">
<path d="M2018 4108 c-4 -174 -21 -221 -104 -297 -63 -58 -123 -81 -211 -81
-74 0 -115 15 -241 88 -52 29 -95 52 -97 50 -11 -11 -537 -930 -534 -932 2 -2
59 -35 125 -74 182 -107 234 -178 234 -318 0 -81 -30 -161 -78 -211 -21 -21
-85 -67 -142 -102 -58 -35 -111 -70 -119 -77 -11 -10 33 -89 254 -455 148
-244 274 -450 281 -458 11 -12 23 -8 81 26 139 83 152 87 238 87 60 0 92 -5
126 -21 66 -30 124 -86 156 -151 25 -52 28 -69 32 -184 l3 -128 538 0 538 0 4
142 c4 174 21 221 104 297 63 58 123 81 209 81 79 0 107 -10 233 -82 57 -33
105 -58 107 -56 6 6 526 910 531 922 2 6 -50 43 -117 81 -194 111 -246 188
-237 344 8 135 56 196 236 301 61 36 111 69 112 73 0 10 -527 886 -546 906
-11 12 -23 8 -81 -26 -139 -82 -152 -87 -238 -88 -68 0 -89 4 -137 28 -65 32
-121 90 -151 156 -17 37 -22 71 -25 174 l-4 127 -538 0 -538 0 -4 -142z m760
-230 c12 -48 83 -175 124 -223 143 -169 351 -258 558 -240 47 4 98 8 114 9 27
1 35 -10 131 -168 l103 -170 -59 -65 c-67 -73 -130 -191 -155 -290 -22 -89
-15 -272 14 -361 29 -88 85 -181 153 -253 l56 -59 -100 -173 -99 -173 -52 14
c-83 22 -240 18 -332 -9 -211 -61 -382 -223 -445 -420 l-24 -77 -208 0 c-208
0 -209 0 -215 22 -3 13 -24 59 -45 103 -58 116 -180 237 -297 293 -114 55
-227 77 -340 67 -159 -14 -130 -32 -246 160 l-102 169 60 65 c67 73 129 191
154 291 24 97 16 272 -19 368 -34 97 -79 171 -148 245 l-57 59 100 173 101
173 51 -14 c78 -21 237 -18 324 6 224 62 407 241 463 453 l13 47 209 0 c208 0
209 0 215 -22z"/>
<path d="M2420 3184 c-234 -50 -436 -254 -485 -489 -95 -454 306 -855 760
-760 182 38 352 170 434 335 94 193 94 390 -1 580 -129 257 -422 396 -708 334z
m245 -355 c193 -72 246 -324 98 -472 -148 -148 -400 -95 -472 98 -89 236 138
463 374 374z"/>
</g>
</svg>
